# xmcd
#
# Track frame offsets: 
#        150
#        27069
#        52407
#        68736
#        87897
#        105447
#        119146
#        134394
#        156020
#        172893
#
# Disc length: 2700 seconds
#
# Revision: 0
# Processed by: cddbd v1.5.1PL2 Copyright (c) Steve Scherf et al.
# Submitted via: ExactAudioCopy v0.95b2
#
DISCID=820a8a0a
DTITLE=Matt Walker and Ashley Davies - Matt Walker and Ashley Davies
DYEAR=1900
DGENRE=Blues
TTITLE0=Sleep Over
TTITLE1=Technological Advances
TTITLE2=Try Harder
TTITLE3=On the Street Tonight
TTITLE4=Miss You
TTITLE5=Bulk Haulage
TTITLE6=Hunter
TTITLE7=Where You Been
TTITLE8=Standing at the Station
TTITLE9=Just Add Wine
EXTD=
EXTT0=
EXTT1=
EXTT2=
EXTT3=
EXTT4=
EXTT5=
EXTT6=
EXTT7=
EXTT8=
EXTT9=
PLAYORDER=
